<?xml version="1.0" encoding="utf-8"?>
<!-- Generator: Adobe Illustrator 21.0.0, SVG Export Plug-In . SVG Version: 6.00 Build 0)  -->
<svg version="1.1" id="Layer_1" xmlns="http://www.w3.org/2000/svg" xmlns:xlink="http://www.w3.org/1999/xlink" x="0px" y="0px"
	 viewBox="0 0 247 34" style="enable-background:new 0 0 247 34;" xml:space="preserve">
<style type="text/css">
	.st0{fill:#F2F2F2;}
	.st1{fill:#ED264E;}
	.st2{fill:#EF3B5F;}
	.st3{fill:#181717;}
	.st4{fill:#FFFFFF;}
	.st5{fill:#E6E6E6;}
</style>
<g>
	<g>
		<path class="st3" d="M178,21.7c-0.4-0.8-0.6-1.2-0.9-1.6c-3.4-6.2-6.9-12.5-10.4-18.7c-0.2-0.4-0.6-1-0.9-1c-2.4-0.1-4.9,0-7.3,0
			v32.6h7.4V12.6c0.5,0.4,0.8,0.8,1,1.2c3.4,6.1,6.8,12.2,10.2,18.3c0.2,0.4,0.7,1,1.1,1c2.4,0.1,4.8,0,7.2,0V0.5H178V21.7z
			 M113.9,21.3c-0.5-0.3-0.7-0.7-1-1.2c-3.4-6.2-6.9-12.5-10.4-18.7c-0.2-0.4-0.6-1-0.9-1c-2.4-0.1-4.9,0-7.3,0V33h7.4V12.6
			c0.5,0.3,0.8,0.7,1,1.1c3.4,6.1,6.8,12.2,10.2,18.3c0.2,0.4,0.7,1,1.1,1c2.4,0.1,4.8,0,7.2,0V0.5h-7.3V21.3z M147,0.4
			c-0.9,0-1.4,0.2-1.9,0.9c-2.8,3.8-5.7,7.6-8.6,11.4c-0.3,0.4-0.7,0.9-1,1.3c-0.1,0-0.2-0.1-0.3-0.1V0.5h-7.3V33h7.4V19.3
			c0.5,0.6,0.8,1,1.1,1.3c2.2,2.9,7.1,9.4,9,12.5c0,0,7.9,0,9.5,0c-4.4-5.6-8.6-11-12.9-16.3c4.3-5.4,8.5-10.8,12.9-16.4
			C151.9,0.4,149.4,0.5,147,0.4z M54.4,0.7C49.3,0.3,44.1,0.5,39,0.5c-0.1,0-0.1,0.1-0.3,0.2V33h7.4v-9.2c2.9,0,5.5,0.2,8.2,0
			c5.7-0.6,9.8-5.5,9.8-11.5C64.1,6.3,60.2,1.2,54.4,0.7z M56.6,12.9c-0.2,2.8-2.2,4.8-4.8,5c-1.8,0.1-3.6,0-5.5,0V6.7
			c2.2,0,4.4-0.2,6.5,0.1C55.3,7.1,56.8,9.9,56.6,12.9z M68.3,33H88v-5.9H75.9v-7.3H88v-5.8H75.9V6.3H88V0.5H68.3V33z M222.4,17.1
			c0-5-2.1-10-6.2-13.3c-7.9-6.2-17.8-3.6-21.9,1.1c-3.4,3.3-5.4,8-5.1,13.3c0.3,4.1,2.1,7.8,4.9,10.6c0,0-0.1,0.1-0.1,0.1
			c2.1,2.2,4.8,3.6,7.7,4.3c1.9,0.5,4,0.7,6,0.5C217.8,32.4,222.9,23.3,222.4,17.1L222.4,17.1z M212.7,23.3
			c-0.4,0.5-0.8,0.9-1.3,1.2c-1.3,1-2.7,1.5-4.2,1.8c-2.1,0.3-4.5-0.2-6.9-1.6c-2.3-1.6-3.8-4.2-4.1-7.3c-0.4-4.8,2.8-8.6,8.3-9.9
			c3.3-0.4,6.2,1.1,8,3C215.9,14.1,216,19.5,212.7,23.3z M224.4,0.5V7h7.3v26.1h7.5V6.8h7.2V0.5H224.4z M24.9,17
			c-0.3,5.3-4.4,8.2-7.9,8.3c-4.5,0.1-8.1-2.9-8.7-7.3c-0.3-2,0.1-3.9,1.3-5.6c1.6-2.5,4.1-3.7,6.9-3.9l0.1-8.4
			C11.1,0,4.5,3.4,1.5,9.8c-3,6.5-1.6,14.2,3.6,19.2c5.2,5,12.9,6.1,19.3,2.7c5.8-3.1,9.1-9.5,8.8-14.8L24.9,17z M25,12.7h8.3V0.2
			H20.7v8.4H25V12.7z"/>
	</g>
</g>
</svg>
