<?xml version="1.0" encoding="utf-8"?>
<!-- Generator: Adobe Illustrator 21.0.0, SVG Export Plug-In . SVG Version: 6.00 Build 0)  -->
<svg version="1.1" id="Layer_1" xmlns="http://www.w3.org/2000/svg" xmlns:xlink="http://www.w3.org/1999/xlink" x="0px" y="0px"
	 viewBox="0 0 43 43" style="enable-background:new 0 0 43 43;" xml:space="preserve">
<style type="text/css">
	.st0{fill:#F2F2F2;}
	.st1{fill:#ED264E;}
	.st2{fill:#EF3B5F;}
	.st3{fill:#181717;}
	.st4{fill:#FFFFFF;}
	.st5{fill:#E6E6E6;}
</style>
<polygon class="st5" points="28.6,16 32.2,19.5 21.9,29.8 11.5,19.5 15.1,16 21.9,22.8 "/>
<path class="st5" d="M22,42.5C10.1,42.5,0.5,32.9,0.5,21C0.5,9.1,10.1-0.5,22-0.5S43.5,9.1,43.5,21C43.5,32.9,33.9,42.5,22,42.5z
	 M22,4.5C12.9,4.5,5.5,11.9,5.5,21c0,9.1,7.4,16.5,16.5,16.5S38.5,30.1,38.5,21C38.5,11.9,31.1,4.5,22,4.5z"/>
</svg>
